<?xml version="1.0" encoding="UTF-8"?>
<svg xmlns="http://www.w3.org/2000/svg" version="1.1" viewBox="0 0 1376 1376">
  <defs>
    <style>
      .cls-1 {
        fill: #fff;
        fill-rule: evenodd;
        isolation: isolate;
        opacity: .9;
      }
    </style>
  </defs>
  <!-- Generator: Adobe Illustrator 28.7.1, SVG Export Plug-In . SVG Version: 1.2.0 Build 142)  -->
  <g>
    <g id="Laag_1">
      <g id="Laag_1-2" data-name="Laag_1">
        <path class="cls-1" d="M672.5-.5h31c199.1,8.2,365.6,85.5,499.5,232,105.2,120.7,162.7,261.4,172.5,422v69c-13.1,189.7-89.1,348.9-228,477.5-121.2,106.9-262.8,165.4-425,175.5h-69c-209.1-14.8-379-103.5-509.5-266C52.5,989.9,4.4,854.6-.5,703.5v-31c6.8-179,71.3-333.3,193.5-463C324.8,76.7,484.6,6.7,672.5-.5ZM665.5,8.5c211.4-2.2,388.3,74.2,530.5,229,127.1,147.4,183.1,318.7,168,514-21.8,193.9-108.3,351.3-259.5,472.5-145.2,109.9-308.9,156.3-491,139-189.8-24.4-344-110.9-462.5-259.5C42.8,960.8-3.5,799.8,12,620.5c20.4-177.3,96.6-325.1,228.5-443.5C362.4,72.1,504,15.9,665.5,8.5Z"/>
        <path class="cls-1" d="M667.5,73.5h36v17h-7c0-3-.3-6-1-9-8,.9-16,1.2-24,1,0,7,.2,14,1,21h24v8h-24v22h24c-1.2-6.7,1.5-9.7,8-9v17c-16.3-.1-32.7.2-49,1-1.2-5.8,1.1-8.4,7-8-.4-17.7-.7-35.3-1-53-5.3.7-7.7-1.7-7-7,4.5.3,8.9,0,13-1Z"/>
        <path class="cls-1" d="M577.5,81.5c4.3,1.4,5,3.9,2,7.5-1.3.7-2.7,1.3-4,2,4.5,16.4,8.7,32.9,12.5,49.5,2.1.8,4.2,1.3,6.5,1.5,1.5,1.6,2,3.4,1.5,5.5-7.1,2.1-14.3,4.1-21.5,6-.8-1.6-1.5-3.3-2-5,2.1-2.2,4.5-4.2,7-6-3.7-13.6-7.2-27.3-10.5-41-3.7,14-7.3,28-11,42-1.1,4.6-3.9,6.1-8.5,4.5-10.2-10.8-20.3-21.7-30.5-32.5,2.7,13,5.7,26,9,39,2.5,1.5,5.4,2.5,8.5,3,1.6,2.2,1.3,4.1-1,5.5-6.9,2-13.9,3.5-21,4.5.2-1.6,0-3.1-1-4.5,1.8-2.1,3.8-3.9,6-5.5-4.6-16.5-8.6-33.2-12-50-2.4.2-4.7,0-7-.5-.8-1.4-1.4-2.9-2-4.5,5.4-2.6,11.1-3.8,17-3.5,11.8,12.5,23.7,25,35.5,37.5,4-16.7,8.4-33.4,13-50,4.5-2.1,9-3.7,13.5-5Z"/>
        <path class="cls-1" d="M876.5,105.5c13.8,0,25.5,4.7,35,14.5-1.6,5.2-3.5,10.4-5.5,15.5-2.1-.8-4.1-1.8-6-3,0-3.4.5-6.7,1-10-18-12.8-32-9.5-42,10-5.6,17.3.2,28.4,17.5,33.5,5.4.5,10.8.1,16-1,1.1,1.8,2.1,3.6,3,5.5-.6,1.3-1.6,2.1-3,2.5-13.5,4.1-25.9,1.8-37-7-12-16.5-11.8-33,.5-49.5,5.9-5.7,12.7-9.3,20.5-11Z"/>
        <path class="cls-1" d="M428.5,130.5c5.4,3.2,5.1,6.4-1,9.5,7.9,15,15.4,30.1,22.5,45.5,1.8,1.3,3.6,1.3,5.5,0,3.4,1.2,4.4,3.4,3,6.5-6.3,3.2-12.7,6.3-19,9.5-3.7-4.1-3.1-7.6,2-10.5-7.5-15.1-15-30.3-22.5-45.5-2.4-.2-4.9-.4-7.5-.5-.9-1.2-1.6-2.5-2-4,6.1-4,12.4-7.5,19-10.5Z"/>
        <path class="cls-1" d="M984.5,157.5c20.2-1,33.3,8,39.5,27,1.5,21.2-7.7,35.4-27.5,42.5-20.4,2.2-33.9-6.3-40.5-25.5-1.8-22.2,7.7-36.8,28.5-44ZM988.5,166.5c-6.6,1.7-12.1,5.4-16.5,11-8.8,11.8-8.6,23.3.5,34.5,18.9,10.9,32.4,6.1,40.5-14.5,3-18.9-5.2-29.2-24.5-31Z"/>
        <path class="cls-1" d="M316.5,222.5c8,11.3,16.3,22.3,25,33,4.2-3.2,7.5-2.6,10,2-6.1,4.8-12.2,9.5-18.5,14-3.3-3.6-3.1-7.1.5-10.5-10.5-13.8-21-27.7-31.5-41.5-4.1,3.2-7.3,2.5-9.5-2,3.3-4.1,7.4-6.8,12.5-8,20,5,39.8,10.2,59.5,15.5-8.5-11.2-17-22.3-25.5-33.5-4.2,4.3-7.7,3.8-10.5-1.5,6.2-4.8,12.3-9.7,18.5-14.5,3.4,3.6,3.3,7.1-.5,10.5l36,48c-1.6,2.3-3.8,3.8-6.5,4.5-19.8-5.7-39.6-11.1-59.5-16Z"/>
        <path class="cls-1" d="M1093.5,288.5c16-4.3,32-8.7,48-13,5.2,2.5,9.5,6.2,13,11-2.7,4.9-5.8,5.3-9.5,1-12.6,11.6-25,23.6-37,36,.2,2,1.1,3.8,2.5,5.5-.5,2.4-1.9,4.3-4,5.5-5.3-4.8-10.5-9.8-15.5-15-.6-3.1.8-4.8,4-5,2.2.5,4.2,1.5,6,3,9.8-9.8,19.7-19.7,29.5-29.5-13.6,3.5-27.3,7.2-41,11-6.5.8-8.7-2-6.5-8.5,4.3-13,7.8-26,10.5-39-9.7,9.2-19.2,18.5-28.5,28,.8,2.2,1.6,4.5,2.5,7-.6,2.1-1.7,3.7-3.5,5-5.3-5.3-10.7-10.7-16-16-.5-1.5,0-2.7,1.5-3.5,3.3-.6,6.3-.3,9,1,11.8-11.8,23.7-23.7,35.5-35.5-.3-1.8-.8-3.6-1.5-5.5.3-2.3,1.5-4.2,3.5-5.5,3.3,3.3,6.7,6.7,10,10,.2,1.2.3,2.3.5,3.5-4.2,16.2-8.6,32.4-13,48.5Z"/>
        <path class="cls-1" d="M218.5,290.5c20.1,6.2,40.1,12.7,60,19.5,2.7.5,5.2,0,7.5-1.5,1.8.8,3.3,1.9,4.5,3.5-4.5,5.2-9,10.3-13.5,15.5-3.3-1.9-4.2-4.6-2.5-8-3.7-2-7.5-3.6-11.5-5-6.7,6.9-12.9,14.2-18.5,22,2.2,3.7,4.3,7.3,6.5,11,3.2-1.6,6.1-1.1,8.5,1.5-4.5,5.1-8.8,10.2-13,15.5-4.1-2.3-5.2-5.7-3.5-10-9.7-18-19.3-36-29-54-.7-1.3-.7-2.7,0-4,2.1-1.6,3.6-3.6,4.5-6ZM225.5,303.5c5.3,7.9,10.1,16.3,14.5,25,4.8-5.5,9.7-11,14.5-16.5-9.4-3.1-18.7-6.2-28-9.5-.6.1-.9.5-1,1Z"/>
        <path class="cls-1" d="M1198.5,348.5c1.5-.3,2.8,0,4,1,1.6,3.5,3.5,6.8,5.5,10,.7,1.7.7,3.3,0,5-8.4,14.2-16.9,28.4-25.5,42.5h52c3.3,4.1,5.9,8.6,8,13.5-1.1,1.6-2.6,2.6-4.5,3-2-1.1-3.8-2.5-5.5-4-15.4,8.3-30.4,17.2-45,26.5,2,4,1,6.9-3,8.5-4.9-5.9-8.9-12.4-12-19.5,1-1.3,2.2-2.4,3.5-3.5,2.9.9,5.2,2.6,7,5,12.2-6.8,24.3-13.6,36.5-20.5-14.4-.8-28.7-.6-43,.5-6-1.3-7.5-4.6-4.5-10,7.6-11.9,14.6-23.9,21-36-12.1,7.3-24.2,14.5-36.5,21.5,3.3,4.4,2.5,7.6-2.5,9.5-4.5-6.1-8.3-12.6-11.5-19.5,3.8-3.6,7-3.1,9.5,1.5,15.4-8.6,30.6-17.6,45.5-27-1.5-3-1.2-5.7,1-8Z"/>
        <path class="cls-1" d="M983.5,397.5c1.6,28.8,3.7,57.8,6.5,87,4.5,39.4,9.1,78.7,14,118,3.6,63.4-6.7,124.4-31,183-34.4,75.5-92.6,120.7-174.5,135.5-4.7.7-9.4.5-14-.5-12.3,4.9-25,6.4-38,4.5-8.9-2.3-15.9-7.3-21-15-68.3-4.1-132.3-22.8-192-56-30.1-16-58.1-35-84-57-33.5-32.9-60-70.7-79.5-113.5-27.3-60.5-44-123.9-50-190,35.6,22.1,73.5,39.6,113.5,52.5,35,8.3,69.3,18.7,103,31,121.7,48.5,187.6,138.3,197.5,269.5,8.7-3.5,17.5-3.9,26.5-1,10.6-181.9,84.9-331.2,223-448ZM977.5,408.5c-130.9,115.9-201.5,261.8-212,437.5,2.9,11.2,6.1,22.4,9.5,33.5,16.5-17.8,31.5-36.8,45-57-3.3,12.5-6.3,25.2-9,38-1.5,6.1-.3,11.6,3.5,16.5,6.5,4.5,13.5,5.5,21,3,29.8-12.1,55.3-30.3,76.5-54.5,35.2-45.1,54.8-96.5,59-154,1.9-57.7,3.6-115.3,5-173,1-27.4,2.5-54.7,4.5-82,0-3.3-1-5.9-3-8ZM324.5,503.5c5.1,37.9,13.3,75.2,24.5,112,16.3,53.7,41.3,102.7,75,147,8.2,7.9,16.7,15.4,25.5,22.5,39.9,29.6,83.9,51.3,132,65,28,9.1,56.6,13.4,86,13,4.8-.2,7.8-2.5,9-7-2.7-11.9-7.2-23-13.5-33.5-22.1-36.1-50-67.3-83.5-93.5-19.5-13.2-39.2-26.2-59-39-36.2-25.3-69.9-53.8-101-85.5,14.9,10.5,30.6,20.7,47,30.5,34.4,18.5,69,36.5,104,54,49.4,32.7,90.9,73.6,124.5,122.5,0-15.5-2.1-30.9-6-46-14.1-51.9-38.5-98.3-73-139-22.5-16.5-46.7-30.3-72.5-41.5-33.5-13.3-67.8-23.9-103-32-40.3-12.5-78.6-29.3-115-50.5-.6.1-.9.5-1,1ZM746.5,854.5c-7.6,2.6-14.5,6.6-20.5,12-3.4,8.8-4.1,17.8-2,27,.7,3.5,2.2,6.5,4.5,9,15.6-6.1,24.8-17.4,27.5-34,2.5-8.8-.7-13.4-9.5-14ZM754.5,903.5c-7.7,2.5-15.7,4.3-24,5.5,5.4,6.6,12.2,10.8,20.5,12.5,6.7-3.4,9-8.7,7-16-.8-1.3-2-2-3.5-2Z"/>
        <path class="cls-1" d="M116.5,459.5c5,.7,6.7,3.4,5,8,16.4,6.1,32.9,12.1,49.5,18,1.6-5,4.7-6.7,9.5-5-1.7,7.5-3.8,14.8-6.5,22-2.2,1.2-4.2.9-6-1-.2-2.4-.7-4.7-1.5-7-6.6-2.2-13.1-4.6-19.5-7-3.9,11-7.8,22-11.5,33,6.5,2.7,13.2,5.1,20,7,2.2-.8,3.9-2.3,5-4.5,2-.2,4,0,6,.5-1.8,8.2-4.6,15.8-8.5,23-1.5-.4-2.8-1.1-4-2,0-2.9-.9-5.4-2.5-7.5-15.5-5.2-31-10.3-46.5-15.5-1.7,1.9-3.5,3.5-5.5,5-1.8-.3-3.5-.9-5-2,2.5-7.4,5.1-14.8,8-22,1.6.6,3.1,1.2,4.5,2,.2,2.4.7,4.7,1.5,7,6.6,2.2,13.1,4.6,19.5,7,4-11.2,7.5-22.5,10.5-34-6.4-1.6-12.8-3.6-19-6-1.9,1-3.2,2.5-4,4.5-4.2,1.2-6-.3-5.5-4.5,2.1-6.4,4.2-12.7,6.5-19Z"/>
        <path class="cls-1" d="M1269.5,489.5c3.3,7.7,5.4,15.7,6.5,24-1.7,1.1-3.6,1.2-5.5.5-.9-2.4-2.4-4.2-4.5-5.5-11.1,3.2-22.3,6.4-33.5,9.5-11.2,5.6-14,14.1-8.5,25.5,3.4,4.9,8,7.6,14,8,12.8-3.4,25.7-6.8,38.5-10-.2-2.7,0-5.4.5-8,1.4-.8,2.9-1.4,4.5-2,2.7,7.9,5.1,15.9,7,24-5.1,2.1-8.2.5-9.5-5-10.7,3.4-21.6,6.6-32.5,9.5-21.2,3-32.8-6.2-35-27.5,1.2-11.7,7.2-19.9,18-24.5,11.7-3.3,23.3-6.4,35-9.5-.2-2.4,0-4.7.5-7,1.6-.6,3.1-1.3,4.5-2Z"/>
        <path class="cls-1" d="M83.5,597.5c5.7.7,11.3,1.4,17,2-.5,2.3-.8,4.6-1,7-3.3-.2-6.7,0-10,.5-9,22.9-1.3,36,23,39.5,15.8-.6,24.1-8.8,25-24.5-.9-5.3-2.5-10.3-5-15,1.1-2.5,3-4.3,5.5-5.5,7.1,9.1,9.5,19.4,7,31-6.3,18.9-19.5,26.8-39.5,23.5-23.5-5.8-32.6-20.6-27.5-44.5,1.6-4.8,3.4-9.5,5.5-14Z"/>
        <path class="cls-1" d="M1295.5,627.5c1.9-.3,3.4.4,4.5,2,.7,4.3.7,8.7,0,13-15.8,12.8-31.3,26-46.5,39.5,13.7.3,27.3,0,41-.5-1.2-5.8,1.2-8.5,7-8,.9,7.6,1.2,15.3,1,23-2,.2-4,0-6-.5-.7-1.7-1.3-3.3-2-5-20,0-40,.6-60,1.5-.5-3.5.2-6.7,2-9.5,15.3-12.7,30.7-25.3,46-38-13.3,0-26.7.2-40,1-1.9,2-3.2,4.3-4,7-2,.5-4,.7-6,.5.3-7.4,0-14.7-1-22,5.2-2.3,8-.6,8.5,5,.6.5,1.2.9,2,1,16.1-1.2,32.3-2,48.5-2.5,1.4-2.7,3.1-5.2,5-7.5Z"/>
        <path class="cls-1" d="M84.5,717.5h5c.4,2.4.5,4.7.5,7-1.8.7-3.6,1.4-5.5,2-.8,5-.6,10,.5,15,17.1-2.2,34.2-3.8,51.5-5-1.2-5.8,1.1-8.4,7-8,.4,8,1,16,2,24-2.4.3-4.8,0-7-1-.8-1.6-1.1-3.2-1-5-17.4,1.4-34.7,3.1-52,5,.6,4.6,1.1,9.3,1.5,14,2.4.9,4.9,1.3,7.5,1v7c-3.1.4-6.3.8-9.5,1-2.3,0-4.3-.8-6-2-1.6-17.6-3.4-35.1-5.5-52.5,3.7-1.1,7.3-1.9,11-2.5Z"/>
        <path class="cls-1" d="M1229.5,757.5c5.9-.4,8.2,2.2,7,8,17.3,2.7,34.7,5.3,52,8,0-5.4,2.7-7.4,8-6-.5,8.2-1.8,16.2-4,24-2.1-.5-3.9-1.5-5.5-3,0-2.2-.9-4.1-2.5-5.5-16.7-2.5-33.3-5-50-7.5,0,5.4-2.7,7.4-8,6,.8-8,1.8-16,3-24Z"/>
        <path class="cls-1" d="M139.5,837.5c16.5-1.3,26.7,6,30.5,22,2.4,12.1-1.5,21.6-11.5,28.5-12.5,4.9-25.1,9.3-38,13-.3,2.6-.8,5.1-1.5,7.5-1.7.9-3.5,1.2-5.5,1-1.9-7.4-4.3-14.8-7-22,1.7-1.8,3.7-2.3,6-1.5,1.8,1.7,3.4,3.6,5,5.5,11.3-3.9,22.6-7.8,34-11.5,12.6-9.1,13.3-19.1,2-30-2.8-1.5-5.8-2.4-9-2.5-12.9,3.1-25.5,7-38,11.5,0,2.3-.2,4.8-.5,7.5-2.2,2.3-4.2,2.3-6,0-2.6-6.9-4.6-13.9-6-21,2.1-1.3,4.3-1.3,6.5,0,1,1.3,2,2.7,3,4,12-4.2,24-8.2,36-12Z"/>
        <path class="cls-1" d="M1207.5,854.5c2.4-.2,4.6.5,6.5,2-.3,2.2-.2,4.4.5,6.5,15.8,5.5,31.7,11,47.5,16.5,1.7-4.1,3.2-8.3,4.5-12.5-.7-1.8-2-3-4-3.5-1.5-3.1-1-5.8,1.5-8,4.3,1.7,8.7,3.3,13,5-5,17.8-10.5,35.4-16.5,53-5.6-1.1-10.9-3-16-5.5.8-1.4,1.4-2.9,2-4.5,2.7-.7,5.3-1.3,8-2,1.7-4.2,3.1-8.6,4-13-16.1-4.6-31.9-10-47.5-16-1.5,1.2-2.7,2.7-3.5,4.5-2.6.8-5,.3-7-1.5,2.9-6.8,5.3-13.8,7-21Z"/>
        <path class="cls-1" d="M190.5,952.5c12.3,0,21.8,4.9,28.5,15l16.5,28.5c-.6,1.7-1.7,2.9-3.5,3.5-2.5-.7-4.7-2-6.5-4-14.3,8.5-28.7,17-43,25.5-.2,2.7-.3,5.5-.5,8.5-1.1.8-2.3,1.5-3.5,2-7.6-10.8-14.4-22.1-20.5-34-4.7-20.6,2.8-34.8,22.5-42.5,3.5-.9,6.8-1.7,10-2.5ZM190.5,962.5c-28.2,10.1-32.7,26.8-13.5,50,14.4-8.5,28.6-17.3,42.5-26.5-2.4-4.6-4.9-9.1-7.5-13.5-5.4-7.3-12.5-10.6-21.5-10Z"/>
        <path class="cls-1" d="M1160.5,960.5c5.3,1.1,6.6,3.9,4,8.5,4.8,3.6,9.8,6.9,15,10,13.7.7,27.3.7,41,0,2.2-2.6,4.9-3.1,8-1.5,1.1.9,1.2,1.9.5,3-3.6,6.2-7.4,12.2-11.5,18-4.4-1.7-5.7-4.7-4-9-9.3-1-18.7-1.2-28-.5,4.8,7.8,9.5,15.6,14,23.5,1.5-1.2,3.2-2.2,5-3,1.8.8,3.5,1.8,5,3-3.9,6.8-8.1,13.5-12.5,20-4.3-1.8-5.5-4.8-3.5-9-5.6-11.5-11.4-22.8-17.5-34-4.6-3.6-9.4-6.7-14.5-9.5-2.6.2-5.1,1.1-7.5,2.5-1.7,0-3-.6-4-2,3.2-6.7,6.7-13.4,10.5-20Z"/>
        <path class="cls-1" d="M280.5,1098.5c129.5,123.7,284.2,178.5,464,164.5,135.7-14.7,252-69.4,349-164,2.9.8,5.3,2.6,7,5.5-98.8,97.5-217.8,153.3-357,167.5-163.4,13.3-308-31.7-434-135-11.8-9.8-22.9-20.3-33.5-31.5-.7-.7-.7-1.3,0-2,1.7-1.5,3.2-3.2,4.5-5Z"/>
      </g>
    </g>
  </g>
</svg>