<svg version="1.1" xmlns="http://www.w3.org/2000/svg" style="display: block;" viewBox="0 0 2048 1096" width="850" height="455" preserveAspectRatio="none">
<path transform="translate(0,0)" fill="rgb(255,184,0)" d="M 1178.32 1.08374 L 1486.97 0.896551 C 1487.15 105.849 1488.87 213.014 1487.33 317.7 C 1528.49 313.884 1580.09 312.618 1622.09 310.329 L 1893.23 295.333 C 1932.12 293.124 1980.02 292.198 2017.92 287.96 C 2018.47 318.852 2022.04 356.125 2023.38 388 L 2038.1 707.105 L 2043.19 806.846 C 2044.07 822.646 2046.47 851.463 2046.17 866.68 C 1990.3 871.132 1926.66 873.301 1870.19 876.19 L 1561.56 892.524 C 1518.14 895.301 1474.7 897.664 1431.25 899.612 C 1396.39 901.093 1361.28 901.181 1326.38 903.523 C 1312.24 904.471 1293.49 907.042 1279.62 904.357 C 1266.72 900.325 1248.14 914.016 1236.63 904.137 C 1230.66 903.747 1221.3 903.614 1215.46 904.781 L 1214.26 906.883 C 1207.64 911.594 1114.77 915.473 1099.38 914.828 C 1084.21 914.262 1059.27 921.287 1045.22 914.733 L 1040 915.026 C 1033.3 912.189 921.759 919.239 906.572 920.038 L 695.27 931.061 C 676.055 932.054 565.22 935.563 554.201 939.678 C 528.89 939.225 225.367 954.489 218.47 957.859 L 218.271 958.837 C 214.527 961.59 210.507 963.254 205.883 963.77 C 148.035 970.215 87.481 968.82 29.7622 974.974 C 29.1633 945.875 26.9027 915.651 25.4309 886.49 L 18.4777 747.711 C 13.5409 629.832 7.70242 511.992 0.962839 394.202 C 28.4181 394.123 59.0529 391.313 86.634 389.695 L 213.662 382.689 L 560.312 365.826 L 561.006 0.938995 C 570.989 1.57143 586.569 1.12276 596.842 1.1295 L 669.397 1.01922 L 869.908 1.07785 L 869.962 78.6098 C 907.072 79.7726 949.087 78.9125 986.472 78.9236 L 1178.37 78.7931 C 1177.59 55.2592 1177.76 24.683 1178.32 1.08374 z M 869.977 349.002 C 896.383 349.555 924.195 344.343 950.086 344.314 C 1003.68 344.253 1056.18 339.408 1109.8 340.097 C 1117.88 342.225 1122.65 341.954 1130.75 341.502 C 1147.7 333.075 1159.18 334.246 1178.05 333.433 L 1177.99 310.412 C 1106.16 309.888 1034.33 309.766 962.504 310.044 C 944.752 310.061 927 310.236 909.251 310.57 C 898.542 310.763 880.437 311.433 870.08 310.237 L 869.977 349.002 z"/>
<path transform="translate(0,0)" fill="rgb(0,0,0)" d="M 1178.32 1.08374 L 1486.97 0.896551 C 1487.15 105.849 1488.87 213.014 1487.33 317.7 C 1413.99 323.51 1337.24 324.751 1263.56 329.632 C 1253.76 330.281 1183.67 334.585 1178.05 333.433 L 1177.99 310.412 C 1106.16 309.888 1034.33 309.766 962.504 310.044 C 944.752 310.061 927 310.236 909.251 310.57 C 898.542 310.763 880.437 311.433 870.08 310.237 L 869.977 349.002 L 869.669 356.112 L 869.688 387.049 L 560.859 387.065 L 560.871 372.134 L 560.312 365.826 L 561.006 0.938995 C 570.989 1.57143 586.569 1.12276 596.842 1.1295 L 669.397 1.01922 L 869.908 1.07785 L 869.962 78.6098 C 907.072 79.7726 949.087 78.9125 986.472 78.9236 L 1178.37 78.7931 C 1177.59 55.2592 1177.76 24.683 1178.32 1.08374 z"/>
<path transform="translate(0,0)" fill="rgb(254,254,254)" d="M 1100.91 119.926 C 1141.82 116.645 1177.64 147.176 1180.88 188.094 C 1184.12 229.012 1153.55 264.8 1112.63 268 C 1071.77 271.195 1036.04 240.681 1032.81 199.82 C 1029.57 158.96 1060.05 123.203 1100.91 119.926 z"/>
<path transform="translate(0,0)" fill="rgb(0,0,0)" d="M 1103.02 157.362 C 1123.31 155.205 1141.49 169.964 1143.53 190.264 C 1145.58 210.564 1130.73 228.657 1110.42 230.598 C 1090.26 232.525 1072.33 217.805 1070.3 197.657 C 1068.26 177.509 1082.89 159.502 1103.02 157.362 z"/>
<path transform="translate(0,0)" fill="rgb(254,254,254)" d="M 890.078 124.036 C 918.81 123.911 952.667 121.487 980.529 127.236 C 1014.62 134.271 1024.83 180.048 1002.08 203.767 C 996.945 209.123 991.915 211.881 985.473 215.315 C 996.587 231.443 1007.62 247.629 1018.56 263.873 L 1004.15 263.918 L 973.757 263.89 C 964.998 249.98 954.891 235.36 945.747 221.578 C 940.445 221.279 934.331 221.579 928.962 221.71 L 928.842 263.875 L 890.069 263.838 L 890.078 124.036 z"/>
<path transform="translate(0,0)" fill="rgb(0,0,0)" d="M 928.971 157.738 C 941.76 157.567 959.024 155.702 970.144 162.674 C 978.897 168.162 975.787 178.954 970.781 185.949 C 958.777 193.573 943.366 191.314 928.886 191.038 L 928.971 157.738 z"/>
<path transform="translate(0,0)" fill="rgb(254,254,254)" d="M 599.302 124.066 C 612.016 123.829 625.41 124.044 638.177 124.051 L 638.292 176.387 L 687.954 176.372 L 687.998 124.044 L 726.81 124.061 C 726.769 169.051 728.016 219.415 726.582 263.881 L 687.991 263.858 L 687.955 210.875 L 638.319 210.863 C 637.704 227.533 638.149 247.005 638.111 263.894 L 599.39 263.856 C 598.465 218.459 599.308 169.716 599.302 124.066 z"/>
<path transform="translate(0,0)" fill="rgb(254,254,254)" d="M 754.04 124.052 L 866.676 124.063 L 866.637 157.032 L 792.705 157.075 C 792.466 163.836 792.609 171.289 792.609 178.108 L 859.644 178.216 L 859.573 208.836 L 802.005 208.836 L 792.662 208.97 C 792.517 216.141 792.623 223.616 792.625 230.815 L 867.81 230.943 L 867.786 263.888 L 754.098 263.843 C 753.441 217.839 754.043 170.181 754.04 124.052 z"/>
<path transform="translate(0,0)" fill="rgb(254,254,254)" d="M 1205.02 124.039 L 1317.4 124.051 L 1317.32 157.041 L 1243.37 157.068 L 1243.35 178.118 L 1310.42 178.213 L 1310.33 208.829 L 1250.75 208.842 C 1246.6 208.955 1246.77 208.269 1244.11 210.397 C 1242.09 216.039 1243.17 224.397 1243.37 230.819 L 1318.47 230.973 C 1318.68 241.628 1318.46 253.165 1318.43 263.885 L 1205.06 263.846 L 1205.02 124.039 z"/>
<path transform="translate(0,0)" fill="rgb(254,254,254)" d="M 1380.53 122.234 C 1405.44 119.433 1428.64 125.058 1448.57 140.273 L 1429.32 167.563 C 1418.55 160.666 1387.86 146.259 1377.8 157.881 C 1376.53 159.346 1375.9 161.248 1376.02 163.179 C 1376.79 173.968 1409.84 178.853 1418.65 181.83 C 1444.98 190.112 1460.14 208.987 1449.33 236.902 C 1440.74 259.088 1419.52 265.326 1397.83 266.175 C 1371.9 266.401 1350.14 260.02 1330.27 243.068 C 1337.22 234.536 1344.67 225.874 1351.76 217.419 C 1362.9 225.723 1375.37 231.559 1389.18 233.584 C 1398.89 235.007 1414.72 236.347 1412.47 221.478 C 1406.53 210.278 1365.74 208.727 1352.67 197.243 C 1345.5 192.159 1338.28 185.018 1337.16 175.404 C 1333.42 143.158 1352.6 127.347 1380.53 122.234 z"/>
<path transform="translate(0,0)" fill="rgb(254,254,254)" d="M 1487.33 317.7 C 1528.49 313.884 1580.09 312.618 1622.09 310.329 L 1893.23 295.333 C 1932.12 293.124 1980.02 292.198 2017.92 287.96 C 2018.47 318.852 2022.04 356.125 2023.38 388 L 2038.1 707.105 L 2043.19 806.846 C 2044.07 822.646 2046.47 851.463 2046.17 866.68 C 1990.3 871.132 1926.66 873.301 1870.19 876.19 L 1561.56 892.524 C 1518.14 895.301 1474.7 897.664 1431.25 899.612 C 1396.39 901.093 1361.28 901.181 1326.38 903.523 C 1312.24 904.471 1293.49 907.042 1279.62 904.357 L 1282.05 900.633 C 1286.49 899.808 1300.97 899.288 1305.81 899.048 L 1350.37 896.802 L 1506.79 888.583 L 2039.27 860.693 C 2038.07 802.555 2032.95 736.161 2029.89 677.629 L 2009.91 296.044 C 1993.87 298.025 1965.49 298.69 1948.33 299.577 L 1831.06 305.683 L 1458.86 325.181 L 1234.85 336.888 L 1169.9 340.486 C 1159.5 341.053 1140.63 342.471 1130.75 341.502 C 1147.7 333.075 1159.18 334.246 1178.05 333.433 C 1183.67 334.585 1253.76 330.281 1263.56 329.632 C 1337.24 324.751 1413.99 323.51 1487.33 317.7 z"/>
<path transform="translate(0,0)" fill="rgb(254,254,254)" d="M 0.962839 394.202 C 28.4181 394.123 59.0529 391.313 86.634 389.695 L 213.662 382.689 L 560.312 365.826 L 560.871 372.134 L 196.969 391.359 L 72.8795 397.843 C 54.6976 398.792 26.2412 401.22 8.7486 400.926 C 10.422 450.422 13.7973 501.42 16.3927 550.985 L 30.9138 827.981 C 33.2517 872.582 36.8467 921.056 38.0353 965.418 L 153.638 959.453 C 162.838 958.961 213.631 954.759 218.271 958.837 C 214.527 961.59 210.507 963.254 205.883 963.77 C 148.035 970.215 87.481 968.82 29.7622 974.974 C 29.1633 945.875 26.9027 915.651 25.4309 886.49 L 18.4777 747.711 C 13.5409 629.832 7.70242 511.992 0.962839 394.202 z"/>
<path transform="translate(0,0)" fill="rgb(254,254,254)" d="M 869.977 349.002 C 896.383 349.555 924.195 344.343 950.086 344.314 C 1003.68 344.253 1056.18 339.408 1109.8 340.097 L 1112.47 342.059 L 1111.86 343.095 C 1103.27 342.891 1095.45 344.341 1087.01 344.71 C 1014.63 347.873 942.029 353.25 869.669 356.112 L 869.977 349.002 z"/>
<path transform="translate(0,0)" fill="rgb(254,254,254)" d="M 1099.78 909.969 L 1179.25 905.831 C 1184.49 905.565 1209.34 903.937 1213.26 904.426 L 1214.26 906.883 C 1207.64 911.594 1114.77 915.473 1099.38 914.828 C 1084.21 914.262 1059.27 921.287 1045.22 914.733 L 1042.99 913.829 C 1045 912.405 1092.24 910.396 1099.78 909.969 z"/>
<path transform="translate(0,0)" fill="rgb(254,254,254)" d="M 1236.63 904.137 C 1244.4 901.288 1271.58 901.428 1282.05 900.633 L 1279.62 904.357 C 1266.72 900.325 1248.14 914.016 1236.63 904.137 z"/>
<path transform="translate(0,0)" fill="rgb(254,254,254)" d="M 1578.77 582.542 C 1643.26 576.508 1700.36 624.052 1706.1 688.563 C 1711.85 753.073 1664.06 809.962 1599.52 815.424 C 1535.39 820.851 1478.93 773.419 1473.22 709.311 C 1467.51 645.203 1514.69 588.537 1578.77 582.542 z"/>
<path transform="translate(0,0)" fill="rgb(255,184,0)" d="M 1582.57 634.592 C 1605.69 632.031 1628.41 642.086 1642.07 660.925 C 1655.72 679.764 1658.2 704.484 1648.57 725.664 C 1638.94 746.843 1618.68 761.217 1595.5 763.309 C 1560.18 766.497 1528.87 740.644 1525.33 705.352 C 1521.78 670.061 1547.32 638.496 1582.57 634.592 z"/>
<path transform="translate(0,0)" fill="rgb(254,254,254)" d="M 419.938 643.523 C 483.917 635.127 542.599 680.159 551.041 744.132 C 559.484 808.104 514.494 866.819 450.527 875.307 C 386.496 883.805 327.709 838.759 319.257 774.721 C 310.806 710.683 355.894 651.928 419.938 643.523 z"/>
<path transform="translate(0,0)" fill="rgb(255,184,0)" d="M 423.727 695.719 C 459.108 689.357 492.89 713.062 498.941 748.497 C 504.992 783.933 480.992 817.505 445.505 823.245 C 410.456 828.914 377.387 805.274 371.41 770.276 C 365.434 735.278 388.783 702.003 423.727 695.719 z"/>
<path transform="translate(0,0)" fill="rgb(254,254,254)" d="M 778.252 624.26 C 786.805 623.739 790.353 622.995 793.036 633.371 C 794.782 640.125 795.756 647.308 797.248 654.182 L 807.471 699.98 C 817.375 744.253 827.373 788.553 837.205 832.842 C 838.303 837.789 840.418 846.042 837.815 850.038 C 830.689 853.717 799.644 854.934 792.588 853.216 C 790.61 851.741 789.623 849.847 789.071 847.465 C 781.559 815.072 776.308 781.851 769.09 749.398 C 761.915 764.739 724.275 854.498 715.889 860.459 C 713.928 861.853 711.806 862.632 709.39 862.128 C 706.037 861.427 703.251 858.348 701.259 855.739 C 694.893 847.404 689.941 836.893 684.615 827.824 C 670.547 803.872 657.009 779.252 641.87 755.975 C 640.984 768.306 639.789 780.901 638.755 793.244 C 637.362 808.877 636.306 843.739 632.367 857.276 C 631.83 859.121 631.364 860.91 629.554 861.787 C 625.346 863.825 590.841 866.165 586.57 864.479 C 584.796 863.779 583.475 862.714 582.891 860.879 C 581.697 857.132 603.439 664.739 606.62 644.502 C 607.154 641.1 607.778 637.83 609.526 634.821 C 613.663 632.403 620.261 631.635 623.327 635.78 C 631.526 646.862 638.758 659.871 645.853 671.642 L 683.965 734.687 C 690.962 746.226 699.539 761.257 707.179 771.865 C 716.504 751.857 770.496 631.9 778.252 624.26 z"/>
<path transform="translate(0,0)" fill="rgb(254,254,254)" d="M 1926.51 567.421 C 1928.12 567.321 1929.86 567.856 1931.46 568.222 C 1932.48 568.998 1933.33 569.842 1933.87 571.023 C 1936.07 575.841 1945.41 761.203 1945.62 781.75 C 1945.67 786.605 1945.53 791.708 1943.89 796.314 C 1940.26 798.468 1933.78 798.366 1930.5 795.651 C 1916.43 784.008 1902.99 771.348 1889.44 759.074 L 1795.91 674.55 C 1796.04 691.512 1804.26 794.765 1799.76 799.925 C 1792.9 803.48 1774.01 803.053 1765.5 803.268 C 1753.36 804.493 1751.32 803.843 1750.67 791.311 C 1747.18 724.409 1743.31 657.519 1739.92 590.614 C 1739.7 586.163 1739.63 579.593 1741.01 575.417 C 1743.01 573.475 1751.49 572.803 1753.67 574.409 C 1768.44 585.306 1782.75 598.608 1796.58 610.629 L 1889.39 690.995 C 1888.51 674.139 1882.31 580.884 1885.28 571.344 C 1890.57 567.938 1918.26 567.77 1926.51 567.421 z"/>
<path transform="translate(0,0)" fill="rgb(254,254,254)" d="M 206.814 654.358 C 235.582 651.247 263.658 658.25 286.848 675.581 C 290.246 678.12 294.12 680.816 294.779 685.2 C 292.839 691.552 271.195 714.735 265.525 719.746 C 254.481 712.411 246.259 707.063 233.067 704.273 C 216.713 700.718 199.617 703.847 185.583 712.964 C 154.623 733.516 147.507 778.472 168.543 808.538 C 178.403 822.47 193.447 831.855 210.296 834.584 C 235.718 838.843 251.909 828.606 270.966 814.765 C 277.628 819.604 284.336 826.471 290.328 832.278 C 294.759 836.236 301.254 840.922 302.741 846.367 C 302.582 850.591 300.968 852.92 298.035 855.781 C 281.032 872.362 259.035 882.81 235.702 886.241 C 204.605 890.995 172.9 883.091 147.674 864.295 C 123.053 845.739 106.807 818.168 102.506 787.639 C 98.0656 756.543 106.228 724.962 125.179 699.912 C 145.925 672.645 173.414 658.933 206.814 654.358 z"/>
<path transform="translate(0,0)" fill="rgb(254,254,254)" d="M 1069.74 609.31 C 1102.76 604.955 1137.03 614.93 1160.76 638.656 C 1156.45 646.631 1136.87 669.44 1129.72 674.125 C 1118.87 666.905 1109.93 661.29 1096.82 658.763 C 1080.12 655.382 1062.77 658.999 1048.82 668.77 C 1034.4 678.86 1025.26 694.116 1022.22 711.288 C 1018.9 729.536 1022.99 748.353 1033.58 763.579 C 1043.25 777.348 1058.09 786.607 1074.71 789.239 C 1100.26 793.289 1116.5 783.368 1135.77 769.493 C 1141.12 773.284 1147.3 779.561 1152.18 784.236 C 1157.95 789.58 1164.9 795.821 1169.39 802.152 C 1169.16 802.504 1168.92 802.853 1168.68 803.198 C 1154.67 822.961 1126.05 836.785 1102.5 840.614 C 1071.41 845.923 1039.48 838.537 1013.87 820.109 C 988.839 801.886 972.109 774.428 967.395 743.824 C 962.575 712.934 970.233 681.395 988.683 656.156 C 1009.07 628.43 1036.3 614.372 1069.74 609.31 z"/>
<path transform="translate(0,0)" fill="rgb(254,254,254)" d="M 1369.57 593.412 C 1395.75 591.985 1422.54 600.619 1444.01 616.35 C 1446.88 618.452 1448.55 621.306 1448.84 624.915 C 1446.67 631.977 1426.15 653.803 1420.08 659.27 C 1409.61 652.367 1402.27 647.391 1389.92 644.282 C 1373.68 640.097 1356.44 642.613 1342.07 651.265 C 1310.51 670.487 1301.87 714.565 1321.29 745.328 C 1330.44 759.691 1344.91 769.832 1361.54 773.521 C 1390.06 779.79 1404.73 767.894 1425.85 754.411 C 1432.73 759.633 1440.43 767.418 1446.8 773.505 C 1453.14 779.425 1462.22 785.166 1453.83 793.832 C 1434.79 813.496 1408.58 824.775 1381.42 826.77 C 1350.34 829.138 1319.59 819.061 1295.95 798.757 C 1272.65 778.567 1258.35 749.947 1256.17 719.201 C 1253.77 687.819 1264.12 656.795 1284.87 633.13 C 1307.61 607.276 1335.74 595.623 1369.57 593.412 z"/>
<path transform="translate(0,0)" fill="rgb(254,254,254)" d="M 670.543 424.423 C 688.331 423.135 703.247 422.275 720.248 428.233 C 741.339 435.664 758.618 451.163 768.29 471.324 C 777.832 491.425 778.967 514.501 771.442 535.44 C 762.848 559.36 746.704 574.216 724.245 584.842 C 703.052 592.848 658.354 593.667 634.486 593.994 C 632.107 578.238 631.415 547.393 630.548 530.305 C 628.83 496.461 626.326 461.022 625.499 427.299 C 639.434 425.605 656.29 425.126 670.543 424.423 z"/>
<path transform="translate(0,0)" fill="rgb(255,184,0)" d="M 672.948 459.575 C 679.201 459.169 685.748 458.551 692.006 458.903 C 719.923 460.469 739.506 485.092 736.454 512.603 C 734.775 527.735 728.683 537.622 717.176 547.243 C 702.584 556.929 686.533 556.137 669.5 557.029 L 666.239 496.613 C 665.713 486.708 664.421 470.595 664.892 461.246 C 667.457 459.382 669.323 459.867 672.948 459.575 z"/>
<path transform="translate(0,0)" fill="rgb(254,254,254)" d="M 1375.73 387.413 C 1382.11 386.747 1392.05 386.823 1398.71 386.686 C 1401.21 401.318 1402.66 442.91 1403.31 459.845 C 1404.4 488.444 1407.98 525.553 1407.62 553.203 C 1400.73 554.543 1378.37 556.439 1372.22 554.036 C 1368.92 549.752 1367.43 497.629 1366.96 488.135 C 1346.01 490.027 1320.03 490.702 1298.69 491.946 C 1299.11 502.716 1303.16 551.574 1300.61 558.041 C 1298.35 559.791 1296.19 559.616 1293.25 559.883 C 1286.08 559.989 1272.06 561.791 1265.73 559.921 C 1263.62 556.738 1255.34 404.651 1256.92 395.708 C 1262.79 391.888 1285 392.172 1292.8 392.217 C 1295.26 409.685 1295.85 438.687 1296.75 457.002 C 1311.94 454.728 1348.6 453.885 1365.25 453.019 C 1363.96 432.371 1362.27 409.288 1362.11 388.698 L 1375.73 387.413 z"/>
<path transform="translate(0,0)" fill="rgb(254,254,254)" d="M 916.813 411.423 C 921.806 411.044 929.152 409.557 933.023 413.106 C 934.51 414.469 936.469 418.035 936.443 420.118 C 936.125 445.476 938.418 470.711 939.723 496.032 C 941.323 521.245 941.616 541.088 923.579 561.199 C 911.176 574.87 893.862 583.071 875.426 584.007 C 857.267 584.977 839.465 578.703 825.926 566.563 C 799.241 542.419 803.162 505.678 801.34 471.25 C 801.03 453.642 798.989 436.362 799.064 418.341 C 809.621 416.65 826.209 415.93 836.795 416.202 C 838.106 423.495 838.476 437.601 838.852 445.303 L 841.286 495.231 C 841.713 503.887 841.931 516.242 844.117 524.474 C 845.333 529.229 847.783 533.58 851.217 537.087 C 862.612 548.865 882.089 548.391 893.409 536.876 C 897.352 532.887 899.981 527.787 900.943 522.261 C 902.611 512.721 900.78 494.784 900.361 484.468 C 899.403 460.913 897.088 436.739 896.982 413.19 C 902.08 412.222 911.297 411.807 916.813 411.423 z"/>
<path transform="translate(0,0)" fill="rgb(254,254,254)" d="M 1161.64 396.587 C 1188.85 394.251 1210.75 398.604 1230.93 418.294 C 1225.9 425.553 1214.45 437.974 1208.35 444.517 C 1189.82 432.94 1171.15 425.945 1150.35 438.459 C 1126.64 452.727 1121.15 486.655 1136.02 509.318 C 1142.66 519.597 1153.27 526.661 1165.32 528.826 C 1184.63 532.482 1197.45 524.817 1212.49 514.708 C 1216.56 518.055 1221.2 522.635 1225.12 526.297 C 1229.98 530.788 1232.86 533.836 1237.22 538.766 C 1225.39 553.572 1207.88 563.466 1189.3 566.821 C 1166.37 571.146 1142.66 566.13 1123.44 552.887 C 1104.84 539.817 1092.16 519.912 1088.2 497.525 C 1084.16 474.745 1089.34 451.292 1102.6 432.337 C 1117.11 411.736 1137.16 400.773 1161.64 396.587 z"/>
<path transform="translate(0,0)" fill="rgb(254,254,254)" d="M 895.494 621.419 C 902.129 620.957 915.731 618.723 920.421 623.782 C 922.116 632.842 922.603 651.4 923.114 661.189 L 926.59 728.177 L 930.402 799.874 C 931.073 812.553 932.658 832.31 931.553 844.387 C 926.366 848.975 915.925 848.165 908.751 848.412 C 901.384 848.897 889.768 850.412 883.131 847.758 C 880.019 844.294 880.333 827.115 880.053 822.149 C 879.05 804.377 868.676 628.192 871.294 625.47 C 876.062 620.512 888.989 621.671 895.494 621.419 z"/>
<path transform="translate(0,0)" fill="rgb(254,254,254)" d="M 1051.38 404.423 C 1057.85 403.878 1064.66 403.928 1071.17 403.847 C 1072.78 414.585 1073.22 427.364 1073.12 438.218 C 1065.36 439.547 1043.65 440.232 1034.77 440.682 L 1039.13 521.734 C 1039.97 537.619 1041.43 556.749 1041.1 572.437 C 1029.92 574.247 1015.81 574.418 1004.44 574.541 C 1003.6 569.464 1003.37 564.382 1003.04 559.249 C 1002.07 522.365 998.842 479.964 996.977 442.71 C 984.199 443.446 971.386 444.345 958.59 444.245 C 957.076 434.824 956.931 419.921 956.853 410.15 C 965.469 408.48 982.553 408.031 991.793 407.561 L 1051.38 404.423 z"/>
<path transform="translate(0,0)" fill="rgb(254,254,254)" d="M 554.201 939.678 C 565.22 935.563 676.055 932.054 695.27 931.061 L 906.572 920.038 C 921.759 919.239 1033.3 912.189 1040 915.026 C 1027.47 922.201 890.741 926.492 866.822 927.268 C 858.355 927.543 845.15 929.812 836.606 929.608 C 826.412 929.363 773.221 931.14 766.163 934.04 C 760.367 934.216 742.571 934.522 737.77 935.542 C 733.865 935.976 728.777 936.063 724.766 936.249 C 721.877 936.756 719.489 937.056 716.993 938.759 C 722.567 938.973 727.712 939.224 733.308 938.964 L 766.649 938.996 C 786.176 939.285 803.934 936.878 823.654 936.992 L 1231.82 937.338 L 1397.8 937.227 C 1417.72 937.293 1437.65 937.235 1457.57 937.053 C 1466.16 936.962 1480.1 937.134 1488.41 936.171 C 1487.36 980.97 1488.49 1026.08 1488.05 1070.91 C 1487.97 1078.29 1488 1085.76 1488.29 1093.13 L 561.359 1093.21 C 561.041 1044.29 560.438 992.593 561.269 943.816 C 559.36 942.739 555.845 940.896 554.201 939.678 z"/>
<path transform="translate(0,0)" fill="rgb(198,188,180)" d="M 716.993 938.759 C 711.473 936.878 703.202 939.555 696.876 937.885 L 697.465 937.377 C 706.928 936.37 715.231 935.452 724.766 936.249 C 721.877 936.756 719.489 937.056 716.993 938.759 z"/>
<path transform="translate(0,0)" fill="rgb(0,0,0)" d="M 924.448 980.018 C 938.585 979.85 974.077 976.356 982.691 990.236 C 991.769 1004.87 985.994 1017.06 972.602 1026.15 L 983.283 1041.23 C 985.063 1043.74 986.98 1046.7 986.484 1049.68 L 982.25 1050.09 L 966.328 1050.07 C 962.686 1044.52 953.424 1026.68 946.671 1029.24 C 942.499 1034.74 943.736 1043.02 943.9 1050.05 L 924.301 1050.11 C 924.198 1026.74 924.247 1003.38 924.448 980.018 z"/>
<path transform="translate(0,0)" fill="rgb(254,254,254)" d="M 943.964 997.022 C 954.582 996.745 973.771 995.251 964.392 1012.15 C 957.973 1014.06 950.614 1013.75 943.942 1013.69 L 943.964 997.022 z"/>
<path transform="translate(0,0)" fill="rgb(0,0,0)" d="M 1180 980.071 L 1199.22 979.99 C 1199.36 1003.34 1199.37 1026.7 1199.27 1050.05 L 1179.94 1050.1 L 1179.94 1023.79 C 1171.82 1023.43 1163.31 1023.63 1155.15 1023.69 L 1155.12 1050.05 L 1135.7 1050.12 C 1135.56 1026.76 1135.61 1003.41 1135.84 980.052 L 1155.07 980.075 L 1155.12 1006.09 L 1179.92 1006.12 L 1180 980.071 z"/>
<path transform="translate(0,0)" fill="rgb(0,0,0)" d="M 996.477 980.066 L 1052.85 980.016 L 1052.76 996.603 C 1045.48 996.747 1020.21 995.075 1015.99 998.386 C 1015.51 1001.45 1015.43 1001.92 1016.02 1004.95 C 1020.55 1008.65 1041.82 1007.3 1049.17 1007.25 L 1049.17 1022.55 L 1019.75 1022.62 C 1016.52 1022.97 1017.43 1022.38 1015.77 1024.42 C 1015.54 1027.07 1014.95 1029.57 1016.19 1031.75 C 1021.22 1035.13 1045.4 1033.82 1053.34 1033.82 L 1053.34 1050.08 L 996.274 1050.11 C 996.162 1026.76 996.23 1003.41 996.477 980.066 z"/>
<path transform="translate(0,0)" fill="rgb(0,0,0)" d="M 781.879 980.051 L 801.301 980.046 C 801.43 989.073 798.764 1025.71 805.585 1030.33 C 833.791 1049.42 827.182 994.583 827.272 980.062 L 846.961 980.056 L 846.988 996.5 C 847.174 1010.69 849.365 1031.8 839.089 1042.56 C 827.787 1054.78 800.697 1054.47 789.439 1042.57 C 778.033 1030.51 781.673 996.752 781.879 980.051 z"/>
<path transform="translate(0,0)" fill="rgb(0,0,0)" d="M 1089.64 979.207 C 1106.83 977.82 1115.64 980.083 1127.08 993.249 L 1112.23 1004.48 C 1109.69 1001.88 1107.81 999.978 1104.51 998.374 C 1100.5 996.423 1095.88 996.175 1091.69 997.687 C 1087.32 999.266 1083.86 1002.77 1081.89 1006.94 C 1079.59 1011.81 1079.37 1017.42 1081.29 1022.46 C 1083.04 1026.96 1087.08 1031.27 1091.6 1033.05 C 1100.44 1036.52 1106.65 1029.21 1113.5 1026.32 L 1116.57 1027.83 C 1120.15 1030.52 1124.04 1033.21 1127.69 1035.85 C 1121.92 1042.55 1116.88 1047.16 1108.24 1050.03 C 1098.92 1053.07 1088.78 1052.29 1080.04 1047.85 C 1071.47 1043.47 1065 1035.85 1062.07 1026.69 C 1054.74 1003.46 1067.56 985.865 1089.64 979.207 z"/>
<path transform="translate(0,0)" fill="rgb(0,0,0)" d="M 1208 980.012 L 1269.19 979.999 L 1269.19 997.071 L 1248.51 997.144 C 1248.08 1007.51 1248.44 1020.51 1248.47 1031.07 L 1248.46 1050.14 L 1228.98 1050.19 L 1228.91 997.169 L 1207.95 997.13 L 1208 980.012 z"/>
<path transform="translate(0,0)" fill="rgb(0,0,0)" d="M 854.708 980.009 L 916.052 980.041 L 916.076 997.102 L 895.028 997.135 L 894.995 1029.5 L 894.999 1050.13 L 875.659 1050.18 L 875.503 997.214 L 854.495 997.122 C 854.485 991.488 854.635 985.66 854.708 980.009 z"/>
<path transform="translate(0,0)" fill="rgb(0,0,0)" d="M 719.429 998.526 C 728.385 996.203 737.551 1001.49 740.03 1010.4 C 742.51 1019.31 737.388 1028.57 728.519 1031.21 C 722.642 1032.95 716.28 1031.39 711.879 1027.12 C 707.478 1022.85 705.722 1016.54 707.287 1010.62 C 708.853 1004.69 713.495 1000.07 719.429 998.526 z"/>
<path transform="translate(0,0)" fill="rgb(0,0,0)" d="M 1320.18 998.515 C 1326.1 997.009 1332.38 998.812 1336.61 1003.23 C 1340.83 1007.65 1342.35 1014.01 1340.58 1019.86 C 1338.8 1025.71 1334.01 1030.16 1328.05 1031.49 C 1319 1033.51 1310.01 1027.89 1307.86 1018.88 C 1305.71 1009.87 1311.2 1000.8 1320.18 998.515 z"/>
<path transform="translate(0,0)" fill="rgb(0,0,0)" fill-opacity="0.0352941" d="M 737.77 935.542 C 742.571 934.522 760.367 934.216 766.163 934.04 L 765.41 936.404 L 761.802 937.422 L 763.661 937.307 C 764.716 938.498 765.11 938.637 766.649 938.996 L 733.308 938.964 L 733.573 937.716 L 737.77 935.542 z"/>
<path transform="translate(0,0)" fill="rgb(30,28,29)" fill-opacity="0.854902" d="M 724.766 936.249 C 728.777 936.063 733.865 935.976 737.77 935.542 L 733.573 937.716 L 733.308 938.964 C 727.712 939.224 722.567 938.973 716.993 938.759 C 719.489 937.056 721.877 936.756 724.766 936.249 z"/>
</svg>